<?xml version="1.0" encoding="utf-8"?>
<svg version="1.1" xmlns:xlink="http://www.w3.org/1999/xlink" width="20px" height="20px" xmlns="http://www.w3.org/2000/svg">
  <g transform="matrix(1 0 0 1 -966 -417 )">
    <path d="M 19.6670508398438 1.96453841796875  L 11.6207676367187 10.0108216015625  L 19.6670508398438 18.0571048046875  C 19.8680259401307 18.26872968016  19.9800787114837 18.5494395245788  19.9800787114837 18.8412889358411  C 19.9800787114837 19.4702122124853  19.470235660003 19.9800552639661  18.8413123833587 19.9800552639661  C 18.5494629673213 19.9800552639661  18.2687531186844 19.8680024889552  18.0571282421875 19.6670273828125  L 10.0108450585937 11.6207441992188  L 1.96456185546875 19.6670273828125  C 1.75293699932817 19.8680023725946  1.47222723450898 19.9800550749201  1.18037791336119 19.9800550749201  C 0.551454636716942 19.9800550749201  0.0416115852361884 19.4702120234393  0.0416115852361884 18.8412887467951  C 0.0416115852361884 18.5494394256473  0.153664287561678 18.2687296608281  0.35463927734375 18.0571048046875  L 8.40092248046875 10.0108216015625  L 0.35463927734375 1.96453841796875  C 0.128246176330889 1.74953838445395  5.68913263060868E-05 1.45101581388687  5.68913263060868E-05 1.13879978195131  C 5.68913263060868E-05 0.50987650530706  0.509899942807059 3.34538263061972E-05  1.13882321945131 3.34538263061972E-05  C 1.45103925138687 3.34538263061972E-05  1.74956182195395 0.128222738830889  1.96456185546875 0.35461583984375  L 10.0108450585937 8.4008990234375  L 18.0571282421875 0.35461583984375  C 18.2687531186844 0.153640733701018  18.5494629673213 0.0415879586901947  18.8413123833587 0.0415879586901947  C 19.470235660003 0.0415879586901947  19.9800787114837 0.551431010170948  19.9800787114837 1.18035428681519  C 19.9800787114837 1.47220369807745  19.8680259401307 1.75291354249623  19.6670508398438 1.96453841796875  Z " fill-rule="nonzero" fill="#000000" stroke="none" transform="matrix(1 0 0 1 966 417 )" />
  </g>
</svg>