<?xml version="1.0" encoding="utf-8"?>
<svg version="1.1" xmlns:xlink="http://www.w3.org/1999/xlink" width="19px" height="19px" xmlns="http://www.w3.org/2000/svg">
  <g transform="matrix(1 0 0 1 -30 -404 )">
    <path d="M 18.3161508018973 12.7269841352307  C 18.3156230323661 12.6979563656994  18.3140396990327 12.6689285714286  18.3124563409598 12.6388452380952  L 18.3077063409598 12.5348730076265  L 18.3013730076265 12.4557063409598  C 18.2992064155881 12.4243689245842  18.2967433478621 12.3930527106291  18.2939841352307 12.3617619047619  L 18.2892341352307 12.3005396742932  C 18.2850119047619 12.2562063409598  18.2797341352307 12.2118730076265  18.2744563409598 12.1670119047619  L 18.2660119047619 12.0899563409598  L 18.2633730076265 12.0640952380952  C 18.2528174438244 11.9838730076265  18.2422619047619 11.9031230076265  18.229067468564 11.8218452380952  L 18.2285396742932 11.816567468564  L 18.2222063409598 11.7812063409598  C 18.2116507771577 11.7136507771577  18.2000396742932 11.6460952380952  18.1879008018973 11.5780119047619  L 18.1805119047619 11.5421230076265  L 18.1609841352307 11.4444841352306  L 18.1372341352306 11.3262619047619  L 18.1219285714286 11.260817468564  C 18.1145396742932 11.2259841352306  18.1060952380952 11.1906230323661  18.0976508018973 11.1552619047619  L 18.0791785714286 11.0739841352306  L 18.0538452380952 10.975817468564  L 18.0264008018973 10.8702619047619  L 18.0126785714286 10.8174841352306  C 18.0000119047619 10.771567468564  17.9862896742932 10.7251230323661  17.972567468564 10.6786785714286  C 17.9635952380952 10.6485952380952  17.9556785714286 10.6190396742931  17.9461785714286 10.5889563409598  L 17.939317468564 10.5630952380952  C 17.9140199199455 10.479715319303  17.8876287566807 10.3966711283119  17.8601508018973 10.3139841352306  L 17.8511785714286 10.2875952380952  C 17.8269008018973 10.2147619047619  17.8020952380952 10.1414008018973  17.7757063409598 10.0680396742931  L 17.7625119047619 10.0332063409598  C 17.7530119047619 10.0057619047619  17.7424563409598 9.97831744382439  17.7324285714286 9.95140080189731  C 17.7176508018973 9.91128969903273  17.7034008018973 9.87170636569939  17.6880952380952 9.83212300762648  C 17.6785952380952 9.80678967429314  17.6680396742932 9.78198411049106  17.6580119047619 9.75665080189731  C 17.646000608633 9.7259892473954  17.6338616143823 9.69537787058936  17.6215952380952 9.66481746856398  L 17.5952063409598 9.59778967429315  L 17.5392619047619 9.46531746856398  L 17.5081230076265 9.3930119047619  L 17.497567468564 9.36820634095981  C 17.4637896990327 9.29009523809523  17.4289563656994 9.21251190476189  17.393067468564 9.13492857142856  L 17.388317468564 9.12490080189731  L 17.3571785714286 9.05998413523064  C 17.3292063409598 9.00034523809523  17.3007063409598 8.94017857142856  17.2716785714286 8.88053967429314  L 17.2574285714286 8.85256746856397  C 17.2331508018973 8.80401190476189  17.2083452380952 8.75651190476189  17.1835396742932 8.70848413523064  C 17.1634841104911 8.66942857142856  17.1444841104911 8.62984523809523  17.1239008018973 8.59131746856398  L 17.1122896742931 8.57020634095981  C 17.0458486005879 8.44516470578779  16.9772270086909 8.32129394027241  16.9064563409598 8.19865080189731  L 16.8890396742932 8.16698413523064  L 16.8679285714286 8.13267857142856  C 16.7671230076265 7.96062300762648  16.6620952380952 7.79120634095981  16.5528452380952 7.62495634095981  C 16.547567468564 7.61598411049106  16.5422896742932 7.60648411049106  16.5359563409598 7.59751190476189  L 16.504817468564 7.55265080189731  C 16.4172063656994 7.42070636569939  16.3274841352306 7.28981746856397  16.2345952380952 7.16262300762648  L 16.2330119047619 7.15998413523064  C 16.1670396742932 7.07026190476189  16.1000119047619 6.98053969903273  16.0319285714286 6.89292857142856  L 16.0229563409598 6.88131746856398  C 15.9728416640452 6.8170545470452  15.9219957681854 6.75336521801109  15.8704285714286 6.69026190476189  L 15.8414008018973 6.65331746856398  C 15.7802810104108 6.5791306287333  15.7181736226758 6.50576298131362  15.6550952380952 6.43323413523064  L 15.6461230076265 6.42267857142856  L 15.5885952380952 6.35828967429314  C 15.5490119047619 6.31342857142856  15.5099563409598 6.26856744382439  15.4703730076265 6.22528967429314  L 15.4471508018973 6.20101190476189  C 15.4202341352307 6.17145634095981  15.3927896990327 6.14295634095981  15.3653452380952 6.11445634095981  L 15.2756230076265 6.01840080189731  L 15.241317468564 5.98462300762647  C 15.2117619047619 5.95401190476189  15.1816785714286 5.92445634095981  15.1515952380952 5.89490080189731  L 15.075067468564 5.81784523809522  L 15.0302063409598 5.77562300762648  C 14.9978797122575 5.7447791841222  14.9653325866799 5.71416728786746  14.932567468564 5.68378967429314  L 14.8655396742931 5.62045634095981  L 14.8111785714286 5.57295634095981  C 14.7789841352306 5.54340077715772  14.7457341352306 5.51490077715772  14.7130119047619 5.48587300762647  L 14.6533730076265 5.43309523809523  C 14.6322619047619 5.41462300762648  14.6100952380952 5.39720634095981  14.5884563409598 5.37926190476189  L 14.4913452380952 5.29903967429314  C 14.4744563409598 5.28584523809522  14.4580952380952 5.27159523809523  14.4417341352307 5.25787300762648  L 14.3594008018973 5.19453967429314  L 14.2691508018973 5.12487300762648  L 14.2322063409598 5.09637300762648  C 14.1952619047619 5.06892857142856  14.1583174438244 5.04306744382439  14.1208452380952 5.01615080189731  C 14.0955119047619 4.99767857142856  14.0707063409598 4.97920636569939  14.0453730076265 4.96178967429314  C 13.972422961327 4.91062328411468  13.8985211159311 4.86082751960919  13.8237063409598 4.81242857142856  L 13.806817468564 4.80187300762648  C 13.7457078608675 4.7624995473119  13.6839493661957 4.72414242506547  13.621567468564 4.68681746856398  L 13.5745952380952 4.65937300762648  L 7.93317857142856 1.36076190476189  C 7.88310304784767 1.33136097429389  7.83260707775761 1.30268208269956  7.78170634095981 1.27473413523064  L 7.72470634095981 1.24465080189731  C 7.69895216938217 1.23090131855673  7.67309025844022 1.21735460055249  7.64712300762648 1.20401190476189  L 7.58642857142856 1.17234523809523  C 7.55476190476189 1.1565119047619  7.52309523809523 1.14173413523064  7.49090080189731 1.12642857142856  L 7.42228967429315 1.09370634095981  L 7.39378967429315 1.08051190476189  C 7.26819338993962 1.02368757207892  7.14036842820164 0.971923744598248  7.01062300762648 0.925345238095227  L 6.98634523809523 0.916900801897309  L 6.91720634095981 0.894206340959809  C 6.88501190476189 0.883650777157726  6.85228967429314 0.872039674293143  6.82009523809523 0.862011904761893  C 6.8042619047619 0.856734135230642  6.78842857142856 0.853039674293143  6.77259523809523 0.848817468563976  L 6.68815080189731 0.825067468563975  C 6.66703969903272 0.819261904761893  6.64487303236606 0.812400801897309  6.62323413523064 0.807123007626476  C 6.60053969903273 0.801317443824393  6.57837303236606 0.797095238095225  6.55620634095981 0.791817468563975  C 6.52831221993118 0.785143995927075  6.500337926828 0.778810193715033  6.47228967429314 0.772817468563976  L 6.42795634095981 0.762789674293142  C 6.40156744382439 0.757511904761892  6.37623411049106 0.754345238095225  6.35037300762648 0.750123007626475  C 6.31765077715773 0.744845238095225  6.28545634095981 0.738511904761892  6.25326190476189 0.734289674293143  L 6.21948413523064 0.727956340959809  L 6.14084523809523 0.720039674293143  C 6.10601190476189 0.716345238095226  6.07223413523064 0.712123007626477  6.03740080189731 0.709484135230642  L 6.00731746856397 0.706317468563977  C 5.98462303236606 0.704734135230643  5.96192857142856 0.705261904761893  5.93870634095981 0.70420634095981  C 5.89845134535136 0.701996411860784  5.85815631501561 0.700588730614228  5.81784523809522 0.699984135230643  L 5.78406746856397 0.698928571428559  C 5.76612303236606 0.698928571428559  5.74923413523064 0.701039674293142  5.73181746856397 0.701039674293142  C 5.68167857142856 0.702623007626476  5.63153969903272 0.70473411049106  5.58192857142856 0.70842857142856  L 5.53706746856397 0.710539674293143  C 5.52598413523064 0.711595238095225  5.51542857142856 0.71423411049106  5.50434523809522 0.715817468563975  C 5.42948461076328 0.723205332572748  5.35499307050433 0.73394760867645  5.28109523809522 0.748011904761892  L 5.26209523809522 0.751178571428559  L 5.25681746856397 0.752234135230642  L 5.21353967429314 0.762789674293142  C 5.16815077715772 0.773345238095226  5.12223411049106 0.783900777157725  5.07790080189731 0.796567468563975  C 5.05678969903272 0.802373032366059  5.03567857142856 0.809761904761892  5.01456746856397 0.816623007626476  C 4.98606746856397 0.825595238095225  4.95756746856398 0.833511904761892  4.92959523809522 0.843539674293141  C 4.92220634095981 0.846178571428558  4.91587300762648 0.849873007626475  4.90848413523064 0.851984135230641  C 4.86626190476189 0.867817468563975  4.82403969903272 0.885761904761891  4.78287300762647 0.904234135230642  C 4.76281744382439 0.913206365699391  4.74170634095981 0.921123032366058  4.72165080189731 0.930623007626474  C 4.66099573020237 0.959276311210186  4.6016496451437 0.990622317190738  4.54378967429314 1.02456746856397  L 0.391234135230641 3.46817857142856  C 0.449289699032725 3.43440080189731  0.508928571428558 3.40326190476189  0.569623007626475 3.37423413523064  C 0.589678571428558 3.36473413523064  0.610261904761891 3.35681746856397  0.630845238095226 3.34784523809522  C 0.706263059217078 3.31464315785657  0.783432849884419 3.28557234630381  0.862011904761892 3.26076190476189  L 0.925345238095226 3.24017857142856  C 0.970206340959809 3.22751190476189  1.01559523809523 3.21695634095981  1.06098413523064 3.20640080189731  L 1.10478967429314 3.19584523809522  L 1.12853967429314 3.19215080189731  C 1.27732285223332 3.16352678194258  1.42830093137035 3.14781093234933  1.57978967429314 3.14517857142856  L 1.66528967429314 3.14359523809522  C 1.70540077715772 3.14412300762647  1.74603967429314 3.14623413523064  1.78667857142856 3.14781746856397  C 1.81940080189731 3.14940080189731  1.85212300762648 3.15045636569939  1.88537300762648 3.15309523809522  L 1.98828967429314 3.16365080189731  C 2.02576190476189 3.16840080189731  2.06323411049106 3.17209523809522  2.10123413523064 3.17790080189731  L 2.19781746856398 3.19373413523064  C 2.31156403866753 3.21319646025032  2.42429116901399 3.23820779015444  2.53559523809523 3.26867857142856  C 2.61262579985228 3.28941337659238  2.68901248484539 3.3124701889596  2.76465080189731 3.33781746856397  C 2.78787303236606 3.34573413523064  2.81056746856398 3.35259523809522  2.83378967429314 3.36103967429314  C 2.97681744382439 3.41117857142856  3.12248411049106 3.46976190476189  3.26973413523064 3.53784523809522  L 3.33834523809523 3.57056746856397  C 3.48911728541203 3.64234474217793  3.63684619740616 3.72034700937469  3.78115080189731 3.80437300762647  L 9.42256746856398 7.10298413523064  C 9.50015080189731 7.14890080189731  9.57773413523064 7.19640080189731  9.65478967429314 7.24601190476189  L 9.66903967429314 7.25498413523064  C 9.74398411049106 7.30353969903273  9.81892857142856 7.35367857142856  9.89281746856398 7.40540080189731  L 9.96828967429314 7.46028967429314  C 10.0179007771577 7.49565077715773  10.0675119047619 7.53153967429314  10.1165952380952 7.56848413523064  L 10.2068452380952 7.63815080189731  C 10.3618665469864 7.75911765596809  10.5127225295693 7.88532971844167  10.6591508018973 8.01656746856398  C 10.7332831360928 8.0828885290696  10.8061300042088 8.15063259449575  10.8776508018973 8.2197619047619  L 10.9990396742931 8.33851190476189  L 11.0887619047619 8.42823413523064  C 11.1309841352306 8.47098413523064  11.1716230076265 8.51478969903273  11.213317468564 8.55806746856398  L 11.2951230076265 8.64515080189731  C 11.3426230076265 8.69634523809523  11.3895952380952 8.74912303236606  11.4360396742931 8.80242857142856  L 11.4940952380952 8.86681746856398  C 11.5595396742931 8.94228969903273  11.6244563409598 9.01934523809523  11.6888452380952 9.09745634095981  L 11.7184008018973 9.13440080189731  C 11.8433374274978 9.28765141973272  11.9640675684354 9.4442838199608  12.0804563409598 9.60412300762648  L 12.0820396742931 9.6067619047619  C 12.1749285714286 9.73395634095981  12.2646507771577 9.86484523809523  12.3527896742931 9.9962619047619  L 12.400817468564 10.0690952380952  C 12.5095396990327 10.2353452380952  12.614567468564 10.4047619047619  12.7153730076265 10.576817468564  C 12.7280396742931 10.5984563656994  12.7417619047619 10.6206230323661  12.7539008018973 10.6427896742931  C 12.8251508018973 10.7652341104911  12.8937619047619 10.8892619047619  12.9597341352306 11.0143452380952  C 12.9840119047619 11.0597341352306  13.0072341352306 11.1061785714286  13.0309841352306 11.1520952380952  C 13.0557896990327 11.2001230076265  13.0811230323661 11.2481508018973  13.1048730076265 11.2967063409598  C 13.1391785714286 11.3653174438244  13.1719007771577 11.4344563409598  13.2051508018973 11.5035952380952  L 13.2362896742931 11.5690396742931  C 13.2774563409598 11.6577063409598  13.3170396742931 11.7474285714286  13.3560952380952 11.8366230076265  L 13.3867063409598 11.9089285714286  C 13.4547325919359 12.0694871392348  13.5191377782411 12.2315559277242  13.5798730076265 12.3950119047619  L 13.6104841352306 12.4773452380952  C 13.6410952380952 12.5617896742931  13.6706508018973 12.6467619047619  13.6991508018973 12.7317341352306  C 13.7012619047619 12.7396508018973  13.7044285714286 12.747567468564  13.707067468564 12.7549563409598  C 13.7376785714286 12.8478452380952  13.7667063656994 12.9402063409598  13.7941508018973 13.0330952380952  L 13.8205396742931 13.122817468564  C 13.8384841104911 13.1861508018973  13.8569563409598 13.2505396990327  13.8738452380952 13.3144008018973  L 13.9012896742931 13.4199563409598  C 13.9165952380952 13.4795952380952  13.9313730076265 13.5397619047619  13.9456230076265 13.5994008018973  L 13.9699008018973 13.7049563409598  C 13.9836230323661 13.7661785714286  13.9962896990327 13.8274007771577  14.0084285714286 13.8886230076265  L 14.0279563409598 13.9857341352306  C 14.0432619047619 14.0659563656994  14.0569841104911 14.1456508018973  14.0701785714286 14.2253452380952  L 14.0759841352306 14.2607063409598  C 14.0902341352306 14.3520119047619  14.1023730323661 14.4433174438244  14.1139841352306 14.5340952380952  L 14.1224285714286 14.6111508018973  C 14.1401000969213 14.76798537823  14.1527731851152 14.9253428899708  14.1604285714286 15.0829841352306  L 14.1641230076265 15.1711230076265  C 14.1705049847147 15.3457700048904  14.1699767941155 15.5206010932333  14.1625396742931 15.6952063409598  C 14.161484110491 15.7194841104911  14.1593730076265 15.7432341104911  14.1577896742931 15.7675119047619  C 14.1546230076265 15.8271508018973  14.1509285714286 15.8862619047619  14.1456508018973 15.9448452380952  L 14.1350952380952 16.0451230076265  C 14.1133670059229 16.2511832522939  14.0786404118354 16.4556647065534  14.0311230076265 16.6573452380952  C 13.9996604810104 16.7878513135073  13.9619692070786 16.9167766150611  13.9181785714285 17.0436785714286  C 13.9086785714285 17.0705952380952  13.8997063409598 17.0980396742931  13.8896785714286 17.1249563409598  C 13.8148811702573 17.3311823136097  13.7179050422026 17.5286738388347  13.6004563409598 17.7139563409598  C 13.4972199344401 17.8763876370009  13.3769059917715 18.0273108746074  13.241567468564 18.1641508018973  L 13.2289008018973 18.1773452380952  C 13.1537265395169 18.2509154094444  13.0736743885016 18.3193300156232  12.9892896742931 18.3821230076265  C 12.921734110491 18.4327896742931  12.8520674438244 18.4808174438244  12.7797619047619 18.523567468564  L 16.932317468564 16.0799563409598  C 17.0223975280008 16.0261911951436  17.1086329722149 15.9662319933331  17.1904008018973 15.9005119047619  C 17.2563730323661 15.8487896742931  17.3202341352306 15.7939008018973  17.3814563409598 15.7337341352306  L 17.3941230076265 15.7205396742931  C 17.4511230076265 15.6630119047619  17.5054841104911 15.6017896742932  17.5577341352306 15.5379285714286  L 17.5978452380952 15.488317468564  C 17.6522063409598 15.4191785714286  17.7039285714286 15.3468730323661  17.7524841352306 15.269817468564  L 17.7572341352306 15.2640119047619  C 17.8221508018973 15.160567468564  17.882317468564 15.0502619047619  17.9366785714286 14.9341508018973  L 17.9403730076265 14.9257063409598  C 17.9767896742931 14.8465396742931  18.0105674438244 14.7652619047619  18.0422341352306 14.680817468564  L 18.0512063409598 14.6597063409598  L 18.0707341352306 14.5995396742931  C 18.0885280172253 14.5488816190231  18.1052447388631 14.4978516153678  18.1208730076265 14.4464841352306  L 18.134067468564 14.4058452380952  L 18.1499008018973 14.3456785714286  C 18.1615119047619 14.3018730076265  18.1731230323661 14.258067468564  18.1836785714286 14.2137341352306  L 18.1974008018973 14.1593730076265  C 18.2021508018973 14.1393174438244  18.205317468564 14.1182063409598  18.2095396742931 14.0981508018973  C 18.2179841104911 14.0601508018973  18.2253730076265 14.0216230323661  18.2327619047619 13.982567468564  L 18.2443730076265 13.9234563409598  C 18.2485952380952 13.9002341104911  18.2512341104911 13.8754285714286  18.2549285714286 13.8516785714286  L 18.2707619047619 13.7461230076265  L 18.2781508018973 13.6933452380952  C 18.2818452380952 13.6627341352307  18.2844841352306 13.6315952380952  18.2876508018973 13.6004563409598  L 18.2982063409598 13.5001785714286  L 18.3019008018973 13.4605952380952  C 18.3055952380952 13.4157341352307  18.3077063656994 13.3692896742932  18.3103452380952 13.3233730076265  L 18.314567468564 13.251067468564  L 18.3161508018973 13.2331230076265  C 18.319317468564 13.1565952380952  18.3214285714285 13.0790119047619  18.3214285714285 12.9998452380952  L 18.3214285714285 12.9861230076265  C 18.3214285714285 12.9138174438244  18.3209008018973 12.8415119047619  18.3182619047619 12.7686785714286  L 18.3166785714286 12.7269841352306  Z " fill-rule="nonzero" fill="#ffffff" stroke="none" transform="matrix(1 0 0 1 30 404 )" />
  </g>
</svg>