<?xml version="1.0" encoding="utf-8"?>
<svg version="1.1" xmlns:xlink="http://www.w3.org/1999/xlink" width="18px" height="19px" xmlns="http://www.w3.org/2000/svg">
  <g transform="matrix(1 0 0 1 -31 -404 )">
    <path d="M 17.351775 14.6016508018973  L 17.30295 14.7494285714286  L 17.2577999917969 14.8650119047619  L 17.2221000082031 14.9510396742932  L 17.1801 15.0460396742932  C 17.1414696936492 15.1290328611679  17.099433604526 15.2103804780823  17.0541 15.2898730076265  L 16.9827000082031 15.4091508018973  C 16.947710685498 15.4641776733198  16.9109410424382 15.5180397808405  16.8724500082031 15.5706508018973  L 16.7700750082031 15.7025952380952  C 16.7309562949073 15.7510121879486  16.6903363113116 15.7981835336312  16.6482749917969 15.8440396742932  L 16.5742499917969 15.9216230076265  C 16.5322499835937 15.9638452380952  16.4871 16.0044841104911  16.438275 16.0456508018973  L 16.3086000082031 16.1490952380952  C 16.2577185802553 16.1878170005074  16.2055382430598 16.2247829327501  16.1521499917969 16.2599285714286  L 16.0765499917969 16.3074285714286  L 11.9458500082031 18.7510396742932  L 11.6796750082031 18.2960952380952  L 15.80985 15.8524841352307  C 15.8481749917969 15.8297896990327  15.887025 15.8044563656994  15.9284999917969 15.7749008018973  L 16.03665 15.6941508018973  C 16.0802250082031 15.659317468564  16.1190749917969 15.6265952380952  16.1558250082031 15.5933452380952  L 16.2167249917969 15.5337063409598  L 16.28865 15.4571785714286  L 16.3983750082031 15.3262896742932  C 16.43355 15.2809007771577  16.4655750164062 15.2365674438244  16.4939249917969 15.1954008018973  L 16.54695 15.1135952380952  L 16.5994499917969 15.0259841352307  L 16.6545749917969 14.9246508018973  L 16.7076 14.8143452380952  C 16.7291250082031 14.7679008018973  16.750125 14.7193452380952  16.7711249917969 14.666567468564  L 16.813125 14.5583730076265  L 16.8882000082031 14.3272063409598  L 16.9569749917969 14.0432619047619  L 17.008425 13.7529841352307  L 17.0441250082031 13.4389563409598  L 17.05725 13.222567468564  L 17.0609249917969 13.1117341352307  L 17.061975 12.9122341352307  L 17.043075 12.4741785714286  L 17.0299500082031 12.3079285714286  L 17.00685 12.096817468564  L 16.9911 11.9807063409598  L 16.9417500082031 11.669317468564  L 16.8661500082031 11.2977619047619  L 16.7648249917969 10.8876785714286  L 16.693425 10.6396230076265  L 16.608375 10.3715119047619  L 16.4204250082031 9.85270634095982  L 16.265025 9.47323413523065  L 16.0629000082031 9.03412300762649  L 15.890175 8.69370634095982  L 15.7935750082031 8.5142619047619  L 15.65235 8.26620634095982  C 15.5866416166105 8.15337843986944  15.5190823840764 8.04165021833025  15.4496999917969 7.93106746856399  L 15.29955 7.69884523809524  C 15.2402771159161 7.60925077877527  15.1798974409474 7.520401309655  15.118425 7.43231746856399  L 15.03495 7.31515080189732  L 14.94045 7.18690080189732  L 14.7556500082031 6.94623413523066  L 14.6548500082031 6.82115080189732  L 14.5629749917969 6.71031746856399  L 14.27265 6.37940080189732  L 14.107275 6.20259523809524  L 13.86945 5.96615080189732  L 13.6578750082031 5.76928967429316  L 13.458375 5.59459523809524  L 13.1003250082031 5.30801190476191  L 12.9018750082031 5.16392857142857  L 12.806325 5.09848413523066  L 12.6924000082031 5.02406746856399  L 12.60315 4.96759523809524  L 12.47085 4.88737300762649  L 6.786675 1.54653967429316  L 6.49845 1.39348413523066  L 6.34882499999999 1.32170634095982  C 6.28863281523519 1.29426313057432  6.2278954275899 1.26804482695625  6.16664999179687 1.24306746856399  L 6.07529999179687 1.20665080189732  L 5.79809999179687 1.11165080189732  L 5.56184999179687 1.04831746856399  L 5.42167499179687 1.01823413523066  L 5.23267499179687 0.987623007626491  L 5.04472499999999 0.969150801897324  L 4.84260000820312 0.963873007626492  L 4.73812499179687 0.967567468563991  L 4.63470000820312 0.972845238095241  L 4.49925000820312 0.990789674293157  L 4.36904999999999 1.01401190476191  L 4.20524999999999 1.05623413523066  L 4.08975000820312 1.09317857142857  L 4.00732499179687 1.12642857142857  L 3.90967499179687 1.16865080189732  C 3.85631359355795 1.19408677189921  3.80411136430894 1.22191090268776  3.75322499999999 1.25203967429316  L 0.312374991796868 3.28767857142857  L 0.0461999917968687 2.83273413523066  L 3.48652500820312 0.79709523809524  C 3.54900001640624 0.760150801897324  3.61462499999999 0.72531746856399  3.68392499999999 0.692595238095241  L 3.80467500820312 0.63981746856399  L 3.93487499179687 0.58862300762649  L 4.07925 0.542706340959824  L 4.12544999179687 0.530039674293158  L 4.28347500820312 0.492039674293157  L 4.42207500820312 0.46881746856399  L 4.58430000820312 0.447706340959824  L 4.7124 0.440317468563991  L 4.85362500820312 0.435039674293157  L 5.091975 0.442956340959824  L 5.325075 0.467234135230657  L 5.59177499179687 0.514734135230657  L 5.75189999999999 0.551150801897324  L 5.961375 0.609206340959824  L 6.16192499179687 0.676761904761907  C 6.22807499179687 0.700511904761907  6.295275 0.725845238095241  6.36405000820312 0.75381746856399  L 6.4638 0.796039674293157  L 6.79087500820312 0.950150801897325  L 6.96674999179687 1.04303967429316  L 7.04549999179687 1.08737300762649  L 12.784275 4.46040080189732  L 12.9926999917969 4.59023413523066  L 13.0982249917969 4.65990080189732  L 13.4525999917969 4.91428967429316  L 13.68045 5.09373413523066  L 13.8474 5.23253967429316  L 14.1329999917969 5.49115080189732  L 14.29785 5.64737300762649  L 14.5188749917969 5.87220634095982  L 14.72625 6.09598413523066  L 14.87115 6.26012300762649  L 14.9966250082031 6.40790080189732  L 15.14835 6.59526190476191  L 15.2549250082031 6.73142857142857  C 15.3032250164062 6.79370634095982  15.3494250082031 6.85492857142857  15.3914249917969 6.91192857142857  L 15.5268749917969 7.09928967429316  L 15.7851749917969 7.48034523809524  C 15.8581499835937 7.59117857142857  15.92955 7.70570634095982  16.000425 7.82234523809524  L 16.1448000082031 8.06670634095982  L 16.2865500082031 8.32056746856399  L 16.3863 8.50845634095982  L 16.535925 8.80401190476191  L 16.639875 9.02409523809524  L 16.6939499917969 9.14284523809524  L 16.8834750082031 9.59409523809524  L 17.0294249917969 9.97937300762649  L 17.115525 10.2311230076265  L 17.2630500082031 10.7203730076265  L 17.3979749917969 11.270317468564  L 17.4609749917969 11.5927896742932  L 17.4924749917969 11.7812063409598  L 17.51085 11.9057619047619  L 17.534475 12.0941785714286  L 17.5733250082031 12.5185119047619  L 17.5843500082031 12.7602341352307  L 17.5869749917969 12.9069563409598  L 17.5859250082031 13.1249285714286  L 17.5633499917969 13.5234008018973  L 17.5392 13.7503452380952  L 17.4945750082031 14.0305952380952  L 17.451 14.2459285714286  L 17.3906250082031 14.4802619047619  L 17.351775 14.6016508018973  Z " fill-rule="nonzero" fill="#0e1f3b" stroke="none" transform="matrix(1 0 0 1 31 404 )" />
  </g>
</svg>