<?xml version="1.0" encoding="utf-8"?>
<svg version="1.1" xmlns:xlink="http://www.w3.org/1999/xlink" width="110px" height="44px" xmlns="http://www.w3.org/2000/svg">
  <g transform="matrix(1 0 0 1 -22 -149 )">
    <path d="M 23 161  A 11 11 0 0 1 34 150 L 120 150  A 11 11 0 0 1 131 161 L 131 181  A 11 11 0 0 1 120 192 L 34 192  A 11 11 0 0 1 23 181 L 23 161  Z " fill-rule="nonzero" fill="#e6ebf8" stroke="none" fill-opacity="0.862745098039216" />
    <path d="M 22.5 161  A 11.5 11.5 0 0 1 34 149.5 L 120 149.5  A 11.5 11.5 0 0 1 131.5 161 L 131.5 181  A 11.5 11.5 0 0 1 120 192.5 L 34 192.5  A 11.5 11.5 0 0 1 22.5 181 L 22.5 161  Z " stroke-width="1" stroke-dasharray="1,1" stroke="#c5d2f4" fill="none" stroke-dashoffset="0.5" />
  </g>
</svg>