<?xml version="1.0" encoding="utf-8"?>
<svg version="1.1" xmlns:xlink="http://www.w3.org/1999/xlink" width="15px" height="17px" xmlns="http://www.w3.org/2000/svg">
  <g transform="matrix(1 0 0 1 -334 -124 )">
    <path d="M 334 124  L 349 124  L 349 141  L 334 141  L 334 124  " fill-rule="nonzero" fill="#cccccc" stroke="none" />
    <path d="M 335 125  L 348 125  L 348 140  L 335 140  L 335 125  " fill-rule="nonzero" fill="#ffffff" stroke="none" />
    <path d="M 342.925 128.8  C 342.295 128.8  341.8 128.305  341.8 127.675  C 341.8 127.045  342.295 126.55  342.925 126.55  C 343.555 126.55  344.05 127.045  344.05 127.675  C 344.05 128.305  343.555 128.8  342.925 128.8  " fill-rule="nonzero" fill="#cccccc" stroke="none" />
    <path d="M 336 140  L 336 132.3  L 339 128.8  L 343.2 131.6  L 345.6 130.9  L 348 131.6  L 348 140  L 336 140  " fill-rule="nonzero" fill="#169bd5" stroke="none" />
  </g>
</svg>