<?xml version="1.0" encoding="utf-8"?>
<svg version="1.1" xmlns:xlink="http://www.w3.org/1999/xlink" width="18px" height="18px" xmlns="http://www.w3.org/2000/svg">
  <g transform="matrix(1 0 0 1 -37 -105 )">
    <path d="M 15.0569251019022 14.8986073369565  C 13.4501316236413 16.4987899116848  11.3122112771739 17.3808869735054  9.03809867527174 17.3808869735054  C 6.76396696671196 17.3808869735054  4.62602751358696 16.4995541779891  3.0179347826087 14.8993907099185  C 1.40919242527174 13.2978515625  0.523044752038043 11.1691024116848  0.523044752038043 8.90351137907609  C 0.523044752038043 6.63847443953804  1.40923063858696 4.50915208899456  3.01736158288043 2.90830078125  C 4.6254734205163 1.30807999320652  6.76335555366848 0.426785411005434  9.03748726222826 0.426785411005434  C 11.311618970788 0.426785411005434  13.449558423913 1.30807999320652  15.0569251019022 2.90830078125  C 16.666355298913 4.50915208899456  17.5519488790761 6.63849354619565  17.5519488790761 8.90293817934783  C 17.5525220788043 11.1685483186141  16.6663361922554 13.2978515625  15.0569251019022 14.8986073369565  Z M 14.1993800951087 3.77067977241848  C 12.8217518682065 2.39859247622283  10.9879712975543 1.64254203464674  9.03809867527174 1.64254203464674  C 7.08755731997283 1.64254203464674  5.25434994904891 2.39796195652174  3.87616762907609 3.77012567934782  C 2.4985202955163 5.14102836277174  1.73947010869565 6.96443401834239  1.73947010869565 8.90351137907609  C 1.73947010869565 10.8425887398098  2.49788977581522 12.6658797554348  3.875537109375 14.0362856657609  C 5.25375764266304 15.4083729619565  7.08688858695652 16.1637164572011  9.03746815557065 16.1637164572011  C 10.9874172044837 16.1637164572011  12.8211977751359 15.4083538552989  14.1993800951087 14.0362856657609  C 15.5769701086957 12.6647333559783  16.3361158288043 10.8418053668478  16.335447095788 8.90284264605978  C 16.335447095788 6.96382260529891  15.5769701086957 5.14102836277174  14.1993800951087 3.77067977241848  Z M 13.9038192085598 8.90351137907609  C 13.9038192085598 8.56765455163044  13.6320078974185 8.29528914741848  13.2955969769022 8.29528914741848  L 9.64630180027174 8.29528914741848  L 9.64630180027174 4.64597486413043  C 9.64630180027174 4.31021356997283  9.37384086277174 4.03775263247283  9.03807956861413 4.03775263247283  C 8.70231827445652 4.03775263247283  8.42985733695652 4.31021356997283  8.42985733695652 4.64597486413043  L 8.42985733695652 8.29530825407609  L 4.78056216032609 8.29530825407609  C 4.44480086616848 8.29530825407609  4.17233992866848 8.56776919157609  4.17233992866848 8.9035304857337  C 4.17233992866848 9.23917713994565  4.44480086616848 9.51175271739131  4.78056216032609 9.51175271739131  L 8.42985733695652 9.51175271739131  L 8.42985733695652 13.1610478940217  C 8.42985733695652 13.4974397078804  8.70235648777174 13.7692319123641  9.03811778192935 13.7692319123641  C 9.37393639605978 13.7692319123641  9.64628269361413 13.4974397078804  9.64628269361413 13.1610478940217  L 9.64628269361413 9.5117336107337  L 13.2955969769022 9.5117336107337  C 13.6320078974185 9.5117336107337  13.9038192085598 9.23915803328804  13.9038192085598 8.90351137907609  Z " fill-rule="nonzero" fill="#2c63f2" stroke="none" transform="matrix(1 0 0 1 37 105 )" />
  </g>
</svg>