<?xml version="1.0" encoding="utf-8"?>
<svg version="1.1" xmlns:xlink="http://www.w3.org/1999/xlink" width="12px" height="16px" xmlns="http://www.w3.org/2000/svg">
  <g transform="matrix(1 0 0 1 -32 -307 )">
    <path d="M 32 307  L 44 307  L 44 323  L 32 323  L 32 307  " fill-rule="nonzero" fill="#cccccc" stroke="none" />
    <path d="M 33 308  L 43 308  L 43 322  L 33 322  L 33 308  " fill-rule="nonzero" fill="#ffffff" stroke="none" />
    <path d="M 39.14 311.2  C 38.636 311.2  38.24 310.804  38.24 310.3  C 38.24 309.796  38.636 309.4  39.14 309.4  C 39.644 309.4  40.04 309.796  40.04 310.3  C 40.04 310.804  39.644 311.2  39.14 311.2  " fill-rule="nonzero" fill="#cccccc" stroke="none" />
    <path d="M 34 322  L 34 314.85  L 36.25 311.6  L 39.4 314.2  L 41.2 313.55  L 43 314.2  L 43 322  L 34 322  " fill-rule="nonzero" fill="#169bd5" stroke="none" />
  </g>
</svg>