<?xml version="1.0" encoding="utf-8"?>
<svg version="1.1" xmlns:xlink="http://www.w3.org/1999/xlink" width="23px" height="23px" xmlns="http://www.w3.org/2000/svg">
  <g transform="matrix(1 0 0 1 -225 -45 )">
    <path d="M 5.41027897022389 0.486777128996672  C 2.7239157503002 0.486777128996672  0.538589364510997 2.67222634774667  0.538589364510997 5.35846673470956  L 0.538589364510997 17.5461048267506  C 0.538589364510997 20.2324680466743  2.72391575000904 22.4180400992585  5.41027897022389 22  L 17.5980398955169 22  C 20.2840346159758 22.4180400989674  22.4696066679778 20.2325908802174  22.4696066679778 17.5461048267506  L 22.4696066679778 5.35846673470956  C 22.4696066679778 2.67222634774667  20.2840346159758 0.486777128996674  17.5980398955169 0.486777128996674  L 5.41027897022389 0.486777128996672  Z M 5.41027897022389 4  L 17.5980398955169 4  C 18.3511305632415 3.99464913827402  18.9617346587005 4.60537606698495  19 5.35846673470956  L 19 17.5461048267506  C 18.9617346587005 18.2994411606879  18.3511305629503 18.9100452564381  17.5980398955169 19  L 5.41027897022389 19  C 4.65694263628653 18.9100452564381  4.04646137378834 18.2994411609791  4 17.5461048264594  L 4 5.35846673470956  C 4.04646137378834 4.60537606698495  4.65694263599537 3.99464913827402  5.41027897022389 4  Z " fill-rule="nonzero" fill="#a7a7a7" stroke="none" transform="matrix(1 0 0 1 225 45 )" />
  </g>
</svg>