<?xml version="1.0" encoding="utf-8"?>
<svg version="1.1" xmlns:xlink="http://www.w3.org/1999/xlink" width="7px" height="11px" xmlns="http://www.w3.org/2000/svg">
  <g transform="matrix(1 0 0 1 -232 -51 )">
    <path d="M 0.862952253553606 7.03893907987154  C 0.476080669301534 6.61849201020715  0.259109336417016 6.0476968902144  0.260022566053604 5.45278795682467  C 0.260022566053604 4.878357227032  0.460886976453994 4.30404850886418  0.862727949354386 3.86675884540265  C 0.900859663221572 3.82539690457858  0.941010114881728 3.7864751962515  0.983403608534073 3.75035975529597  L 4.5701399061415 0.68591578556941  C 5.15478880140517 0.186522205059344  6.00086424085829 0.297186748798077  6.45990278455947 0.933111337515024  C 6.91894132826064 1.56903592623197  6.81733152601454 2.48949162409856  6.23268263075087 2.98900721594426  L 3.34891569349502 5.45278795682467  L 6.23268263075087 7.91644668579102  C 6.81744367811415 8.41596227792593  6.91905348036025 9.33617395254282  6.46001493665908 9.97222055288461  C 6.00086424059245 10.6082671532264  5.15490095350478 10.7189316969651  4.57025205824111 10.219416104541  L 0.983403608534076 7.15509414672852  C 0.941122266981341 7.11897870577299  0.900971815321185 7.08030102069561  0.862952253553606 7.03893907987154  Z " fill-rule="nonzero" fill="#64a3ed" stroke="none" transform="matrix(1 0 0 1 232 51 )" />
  </g>
</svg>