<?xml version="1.0" encoding="utf-8"?>
<svg version="1.1" xmlns:xlink="http://www.w3.org/1999/xlink" width="11px" height="13px" xmlns="http://www.w3.org/2000/svg">
  <g transform="matrix(1 0 0 1 -458 -248 )">
    <path d="M 10.8131617647059 7.71875  C 10.8139705882353 5.971875  9.55948529411765 5.2  9.55948529411765 2.84375  C 8.25845498784072 3.12247612827269  7.39325384672331 4.36409594766846  7.57786764705882 5.6875  C 6.32419117647059 4.184375  6.36463235294118 2.478125  6.36463235294118 0  C 2.32051470588235 1.54375  3.24985294117647 5.971875  3.12933823529412 7.3125  C 2.11830882352941 6.459375  1.91610294117647 4.46875  1.91610294117647 4.46875  C 0.847660012065304 5.1928781584446  0.234071373240308 6.42563351462936  0.298455882352942 7.71875  C 0.298455882352942 10.6355038350439  2.65225296963958 13  5.55580882352941 13  C 8.45936467741925 13  10.8131617647059 10.6355038350439  10.8131617647059 7.71875  Z " fill-rule="nonzero" fill="#ec808d" stroke="none" transform="matrix(1 0 0 1 458 248 )" />
  </g>
</svg>