<?xml version="1.0" encoding="utf-8"?>
<svg version="1.1" xmlns:xlink="http://www.w3.org/1999/xlink" width="14px" height="17px" xmlns="http://www.w3.org/2000/svg">
  <g transform="matrix(1 0 0 1 -565 -1139 )">
    <path d="M 13.7622058823529 10.09375  C 13.7632352941176 7.809375  12.1666176470588 6.8  12.1666176470588 3.71875  C 10.5107608936155 4.08323801389506  9.40959580492057 5.70689470079722  9.64455882352941 7.4375  C 8.04897058823529 5.471875  8.10044117647059 3.240625  8.10044117647059 0  C 2.95338235294118 2.01875  4.13617647058824 7.809375  3.98279411764706 9.5625  C 2.69602941176471 8.446875  2.43867647058824 5.84375  2.43867647058824 5.84375  C 1.07884001535584 6.79068682258139  0.297909020487665 8.4027515191307  0.379852941176472 10.09375  C 0.379852941176472 13.9079665535189  3.37559468863219 17  7.07102941176471 17  C 10.7664641348972 17  13.7622058823529 13.9079665535189  13.7622058823529 10.09375  Z " fill-rule="nonzero" fill="#ec808d" stroke="none" transform="matrix(1 0 0 1 565 1139 )" />
  </g>
</svg>