<?xml version="1.0" encoding="utf-8"?>
<svg version="1.1" xmlns:xlink="http://www.w3.org/1999/xlink" width="14px" height="4px" xmlns="http://www.w3.org/2000/svg">
  <g transform="matrix(1 0 0 1 -232 -270 )">
    <path d="M 3.75784375 2  C 3.75784375 1.10840625  3.028359375 0.378921875  2.136765625 0.378921875  C 1.245171875 0.378921875  0.5156875 1.10840625  0.5156875 2  C 0.5156875 2.89159375  1.245171875 3.621078125  2.136765625 3.621078125  C 3.028359375 3.621078125  3.75784375 2.89159375  3.75784375 2  Z M 13.4843125 2  C 13.4843125 1.10840625  12.754828125 0.378921875  11.863234375 0.378921875  C 10.971640625 0.378921875  10.24215625 1.10840625  10.24215625 2  C 10.24215625 2.89159375  10.971640625 3.621078125  11.863234375 3.621078125  C 12.754828125 3.621078125  13.4843125 2.89159375  13.4843125 2  Z M 8.621078125 2  C 8.621078125 1.10840625  7.89159375 0.378921875  7 0.378921875  C 6.10840625 0.378921875  5.378921875 1.10840625  5.378921875 2  C 5.378921875 2.89159375  6.10840625 3.621078125  7 3.621078125  C 7.89159375 3.621078125  8.621078125 2.89159375  8.621078125 2  Z " fill-rule="nonzero" fill="#7f7f7f" stroke="none" transform="matrix(1 0 0 1 232 270 )" />
  </g>
</svg>