<?xml version="1.0" encoding="utf-8"?>
<svg version="1.1" xmlns:xlink="http://www.w3.org/1999/xlink" width="212px" height="33px" xmlns="http://www.w3.org/2000/svg">
  <defs>
    <mask fill="white" id="clip53">
      <path d="M 0 28  L 0 5  C 0 2.2  2.37959183673474 0  5.40816326530612 0  L 142.414965986395 0  L 206.591836734694 0  C 209.620408163265 0  212 2.2  212 5  L 212 28  C 212 30.8  209.620408163265 33  206.591836734694 33  L 5.40816326530612 33  C 2.37959183673474 33  0 30.8  0 28  Z " fill-rule="evenodd" />
    </mask>
  </defs>
  <g transform="matrix(1 0 0 1 -415 -46 )">
    <path d="M 0 28  L 0 5  C 0 2.2  2.37959183673474 0  5.40816326530612 0  L 142.414965986395 0  L 206.591836734694 0  C 209.620408163265 0  212 2.2  212 5  L 212 28  C 212 30.8  209.620408163265 33  206.591836734694 33  L 5.40816326530612 33  C 2.37959183673474 33  0 30.8  0 28  Z " fill-rule="nonzero" fill="#f2f2f2" stroke="none" transform="matrix(1 0 0 1 415 46 )" />
    <path d="M 0 28  L 0 5  C 0 2.2  2.37959183673474 0  5.40816326530612 0  L 142.414965986395 0  L 206.591836734694 0  C 209.620408163265 0  212 2.2  212 5  L 212 28  C 212 30.8  209.620408163265 33  206.591836734694 33  L 5.40816326530612 33  C 2.37959183673474 33  0 30.8  0 28  Z " stroke-width="2" stroke="#e4e4e4" fill="none" transform="matrix(1 0 0 1 415 46 )" mask="url(#clip53)" />
  </g>
</svg>