<?xml version="1.0" encoding="utf-8"?>
<svg version="1.1" xmlns:xlink="http://www.w3.org/1999/xlink" width="196px" height="33px" xmlns="http://www.w3.org/2000/svg">
  <defs>
    <mask fill="white" id="clip51">
      <path d="M 0 28  L 0 5  C 0 2.2  2.20000000000005 0  5 0  L 131.666666666667 0  L 191 0  C 193.8 0  196 2.2  196 5  L 196 28  C 196 30.8  193.8 33  191 33  L 5 33  C 2.20000000000005 33  0 30.8  0 28  Z " fill-rule="evenodd" />
    </mask>
  </defs>
  <g transform="matrix(1 0 0 1 -376 -48 )">
    <path d="M 0 28  L 0 5  C 0 2.2  2.20000000000005 0  5 0  L 131.666666666667 0  L 191 0  C 193.8 0  196 2.2  196 5  L 196 28  C 196 30.8  193.8 33  191 33  L 5 33  C 2.20000000000005 33  0 30.8  0 28  Z " fill-rule="nonzero" fill="#f2f2f2" stroke="none" transform="matrix(1 0 0 1 376 48 )" />
    <path d="M 0 28  L 0 5  C 0 2.2  2.20000000000005 0  5 0  L 131.666666666667 0  L 191 0  C 193.8 0  196 2.2  196 5  L 196 28  C 196 30.8  193.8 33  191 33  L 5 33  C 2.20000000000005 33  0 30.8  0 28  Z " stroke-width="2" stroke="#e4e4e4" fill="none" transform="matrix(1 0 0 1 376 48 )" mask="url(#clip51)" />
  </g>
</svg>